<svg width="256" height="256" viewBox="0 0 256 256" fill="none" xmlns="http://www.w3.org/2000/svg">
  <defs>
    <radialGradient id="bg" cx="0" cy="0" r="1" gradientUnits="userSpaceOnUse" gradientTransform="translate(92 76) rotate(49.85) scale(190)">
      <stop stop-color="#45F5EF"/>
      <stop offset="0.38" stop-color="#19CCD1"/>
      <stop offset="0.76" stop-color="#0EA7B4"/>
      <stop offset="1" stop-color="#0B7888"/>
    </radialGradient>
    <linearGradient id="rim" x1="58" y1="54" x2="190" y2="214" gradientUnits="userSpaceOnUse">
      <stop stop-color="white" stop-opacity="0.65"/>
      <stop offset="1" stop-color="white" stop-opacity="0.08"/>
    </linearGradient>
    <filter id="shadow" x="10" y="12" width="236" height="236" filterUnits="userSpaceOnUse" color-interpolation-filters="sRGB">
      <feFlood flood-opacity="0" result="BackgroundImageFix"/>
      <feColorMatrix in="SourceAlpha" type="matrix" values="0 0 0 0 0 0 0 0 0 0 0 0 0 0 0 0 0 0 127 0" result="hardAlpha"/>
      <feOffset dy="10"/>
      <feGaussianBlur stdDeviation="10"/>
      <feComposite in2="hardAlpha" operator="out"/>
      <feColorMatrix type="matrix" values="0 0 0 0 0.0156863 0 0 0 0 0.200784 0 0 0 0 0.266667 0 0 0 0.24 0"/>
      <feBlend mode="normal" in2="BackgroundImageFix" result="effect1_dropShadow_1_1"/>
      <feBlend mode="normal" in="SourceGraphic" in2="effect1_dropShadow_1_1" result="shape"/>
    </filter>
  </defs>

  <g filter="url(#shadow)">
    <circle cx="128" cy="128" r="106" fill="url(#bg)"/>
    <circle cx="128" cy="128" r="101" stroke="url(#rim)" stroke-width="8"/>

    <path
      d="M58 191C77 158 95 127 113 98C128 74 146 55 175 34"
      stroke="white"
      stroke-width="18"
      stroke-linecap="round"
    />

    <path
      d="M106.388 58H130.788C151.969 58 167.515 61.4793 177.427 68.4378C187.339 75.2916 192.295 85.9418 192.295 100.388C192.295 109.973 189.915 117.725 185.155 123.644C180.395 129.458 173.571 133.402 164.683 135.476V137.549C176.179 139.937 184.543 143.985 189.774 149.693C195.11 155.297 197.778 163.257 197.778 173.573C197.778 188.54 192.388 200.305 181.607 208.867C170.826 217.324 155.75 221.552 136.38 221.552H106.388V58ZM132.866 121.882H139.151C149.305 121.882 156.65 120.299 161.185 117.133C165.721 113.863 167.988 108.831 167.988 102.037C167.988 89.8277 159.047 83.7234 141.162 83.7234H132.866V121.882ZM132.866 142.891V195.828H139.94C160.9 195.828 171.38 188.299 171.38 173.24C171.38 165.924 168.759 160.628 163.519 157.351C158.384 153.97 149.935 152.28 138.175 152.28H132.866V142.891Z"
      fill="white"
      transform="matrix(1.12 0 0 1.12 -18 -5)"
    />
  </g>
</svg>
